<svg width="256" height="256" xmlns="http://www.w3.org/2000/svg" preserveAspectRatio="xMidYMid">

 <g>
  <title>background</title>
  <rect fill="none" id="canvas_background" height="402" width="582" y="-1" x="-1"/>
 </g>
 <g>
  <title>Layer 1</title>
  <g fill="#20222D" id="svg_1">
   <path id="svg_2" fill="#21BBD1" d="m64.04571,126.72c0,-36.69943 29.85875,-66.56 66.56,-66.56c36.69943,0 66.56,29.86057 66.56,66.56c0,36.70126 -29.86057,66.56 -66.56,66.56c-36.70125,0 -66.56,-29.85874 -66.56,-66.56l0,0z"/>
   <path id="svg_3" fill="#f44336" d="m256,20.48c0,-11.264 -9.87977,-20.48 -21.14377,-20.48l-104.25052,0c-70.69074,0 -130.60571,56.02743 -130.60571,126.72l0,129.28l31.08571,0l0,-129.28c0,-53.63931 44.7616,-97.28 98.40092,-97.28c53.63931,0 97.83771,43.63886 97.83771,97.28c0,53.63931 -44.29714,97.28 -97.93645,97.28c-25.73532,0 -52.58789,-10.0608 -67.21646,-26.432l0,58.432l68.43428,0c70.69258,0 125.39429,-58.58743 125.39429,-129.28l0,-106.24l0,0z"/>
  </g>
 </g>
</svg>